<svg xmlns="http://www.w3.org/2000/svg" viewBox="18 18 72 72" width="512" height="512"><defs><clipPath id="m"><circle cx="54" cy="54" r="36"/></clipPath><linearGradient id="bg0" gradientUnits="userSpaceOnUse" x1="18" y1="18" x2="90" y2="90"><stop offset="0" stop-color="#1C2152" stop-opacity="1.0"/><stop offset="1" stop-color="#090B22" stop-opacity="1.0"/></linearGradient><radialGradient id="bg1" gradientUnits="userSpaceOnUse" cx="34" cy="30" r="46"><stop offset="0" stop-color="#6464FF" stop-opacity="0.32"/><stop offset="1" stop-color="#6464FF" stop-opacity="0.0"/></radialGradient><linearGradient id="fg0" gradientUnits="userSpaceOnUse" x1="33" y1="44.5" x2="75" y2="44.5"><stop offset="0" stop-color="#FF8A6B" stop-opacity="1.0"/><stop offset="0.45" stop-color="#D07BFF" stop-opacity="1.0"/><stop offset="1" stop-color="#7DB8FF" stop-opacity="1.0"/></linearGradient></defs><g clip-path="url(#m)"><path d="M0 0 L108 0 C108 0 108 0 108 0 L108 108 C108 108 108 108 108 108 L0 108 C0 108 0 108 0 108 L0 0 C0 0 0 0 0 0 Z" fill="url(#bg0)" fill-opacity="1.000"/><path d="M0 0 L108 0 C108 0 108 0 108 0 L108 108 C108 108 108 108 108 108 L0 108 C0 108 0 108 0 108 L0 0 C0 0 0 0 0 0 Z" fill="url(#bg1)" fill-opacity="1.000"/><path d="M33 44.5 C34.25 33.167 36.75 33.167 38 44.5 C39.25 53.833 41.75 53.833 43 44.5 C44.25 37.833 46.75 37.833 48 44.5 C49.25 48.5 51.75 48.5 53 44.5 C54.25 42.633 56.75 42.633 58 44.5 L75 44.5" fill="none" stroke="url(#fg0)" stroke-width="4.4" stroke-linecap="round" stroke-linejoin="round" stroke-opacity="1.000"/><path d="M33 58 L69 58" fill="none" stroke="#FFFFFF" stroke-width="4.4" stroke-linecap="round" stroke-linejoin="round" stroke-opacity="0.920"/><path d="M33 71.5 L55 71.5" fill="none" stroke="#FFFFFF" stroke-width="4.4" stroke-linecap="round" stroke-linejoin="round" stroke-opacity="0.500"/></g></svg>
